<?xml version="1.0" standalone="no"?>
<!DOCTYPE svg PUBLIC "-//W3C//DTD SVG 20010904//EN"
 "http://www.w3.org/TR/2001/REC-SVG-20010904/DTD/svg10.dtd">
<svg version="1.0" xmlns="http://www.w3.org/2000/svg"
 width="768.000000pt" height="768.000000pt" viewBox="0 0 768.000000 768.000000"
 preserveAspectRatio="xMidYMid meet">

<g transform="translate(0.000000,768.000000) scale(0.100000,-0.100000)"
fill="#000000" stroke="none">
<path d="M3430 7054 c-166 -14 -281 -29 -391 -50 -653 -126 -1247 -448 -1699
-921 -178 -186 -371 -445 -474 -634 l-36 -67 45 -11 c26 -6 69 -23 98 -36 28
-14 52 -25 53 -25 1 0 17 26 35 58 192 340 536 714 879 953 699 488 1592 648
2424 434 756 -194 1418 -693 1818 -1372 l53 -89 40 23 c22 13 64 31 93 40 28
9 52 21 52 26 0 31 -184 315 -299 462 -104 134 -312 349 -441 457 -487 409
-1038 652 -1665 733 -114 15 -490 27 -585 19z"/>
<path d="M3425 6224 c-605 -135 -897 -830 -563 -1341 125 -191 313 -326 533
-384 107 -28 288 -30 399 -5 610 138 891 838 545 1356 -119 177 -287 299 -501
361 -99 28 -313 35 -413 13z m402 -232 c285 -105 471 -384 450 -677 -13 -169
-74 -302 -197 -425 -170 -171 -384 -234 -622 -185 -219 46 -422 231 -489 445
-45 146 -45 284 1 422 70 208 254 379 472 439 111 29 274 22 385 -19z"/>
<path d="M6507 5200 c-233 -40 -404 -281 -367 -516 6 -37 15 -75 20 -85 6 -10
10 -20 10 -23 0 -21 -609 -264 -890 -355 -920 -297 -1673 -369 -2459 -236
-464 79 -957 226 -1456 435 -251 105 -278 119 -269 138 15 35 43 148 43 177 1
48 -27 164 -50 213 -34 70 -132 167 -204 203 -179 88 -393 51 -529 -90 -121
-128 -161 -293 -110 -454 89 -275 400 -398 656 -260 l48 26 142 -66 c672 -310
1461 -529 2073 -577 83 -6 172 -14 199 -18 l48 -7 -164 -250 c-455 -693 -790
-1204 -932 -1420 -189 -289 -191 -291 -208 -287 -227 60 -451 -35 -548 -231
-150 -306 68 -657 409 -657 180 0 326 93 409 259 33 66 37 83 40 170 5 115
-17 192 -79 283 l-39 57 167 253 c310 471 534 812 915 1393 105 159 193 295
195 302 3 7 9 13 14 13 4 0 304 -443 665 -985 l657 -985 -20 -22 c-35 -39 -71
-111 -87 -173 -55 -209 46 -425 242 -522 75 -38 77 -38 196 -38 115 0 124 1
189 32 80 38 173 122 210 191 71 132 76 285 14 417 -87 183 -278 287 -471 257
-41 -6 -80 -13 -87 -14 -7 -2 -31 24 -54 57 -111 161 -1269 1901 -1268 1905 1
3 21 6 45 7 699 37 1571 267 2340 618 l139 63 57 -34 c79 -48 152 -68 242 -66
221 3 405 164 442 385 31 187 -74 387 -246 473 -99 48 -184 61 -289 44z m188
-232 c57 -28 90 -63 115 -121 48 -110 7 -239 -94 -302 -44 -27 -58 -30 -126
-30 -68 0 -82 3 -126 30 -89 56 -137 181 -105 278 47 142 205 210 336 145z
m-5909 -6 c85 -44 137 -127 136 -218 -1 -162 -172 -285 -318 -229 -60 23 -122
78 -145 130 -25 53 -24 147 0 200 56 121 211 177 327 117z m1281 -3432 c121
-54 178 -202 122 -317 -27 -56 -98 -117 -154 -133 -90 -25 -198 9 -259 80 -26
31 -56 115 -56 156 0 77 75 186 150 218 50 22 146 20 197 -4z m3284 -1 c79
-40 126 -105 136 -189 17 -148 -110 -281 -258 -267 -209 19 -303 261 -156 405
23 22 58 48 77 56 53 23 152 20 201 -5z"/>
<path d="M457 4068 c-7 -129 2 -412 18 -544 83 -691 385 -1335 848 -1811 l80
-81 24 36 c14 20 43 56 66 79 l40 42 -59 66 c-408 453 -650 925 -758 1483 -38
194 -49 317 -50 547 l0 210 -81 17 c-44 9 -90 20 -102 23 -20 7 -21 3 -26 -67z"/>
<path d="M6748 4125 c-3 -3 -41 -9 -84 -13 l-78 -7 2 -180 c10 -660 -207
-1312 -610 -1832 -43 -57 -122 -150 -174 -207 -51 -58 -94 -109 -94 -114 0 -5
10 -17 21 -28 12 -10 39 -45 61 -76 21 -32 40 -58 42 -58 10 0 248 271 313
356 341 448 558 974 628 1525 20 150 31 455 21 562 -6 64 -11 77 -25 77 -10 0
-20 -2 -23 -5z"/>
<path d="M2570 1076 c-6 -18 -26 -59 -45 -90 -40 -67 -50 -58 125 -114 476
-152 1015 -192 1490 -111 220 37 590 139 590 162 0 5 -9 22 -20 37 -12 16 -32
54 -46 85 -19 42 -31 55 -43 52 -9 -3 -70 -21 -136 -41 -65 -20 -185 -50 -265
-66 -513 -104 -1031 -73 -1528 89 -52 17 -98 31 -102 31 -5 0 -13 -15 -20 -34z"/>
</g>
</svg>
